<?xml version="1.0" standalone="no"?><!DOCTYPE svg PUBLIC "-//W3C//DTD SVG 1.1//EN" "http://www.w3.org/Graphics/SVG/1.1/DTD/svg11.dtd"><svg t="1761492646818" class="icon" viewBox="0 0 1024 1024" version="1.1" xmlns="http://www.w3.org/2000/svg" p-id="3258" xmlns:xlink="http://www.w3.org/1999/xlink" width="200" height="200"><path d="M512 1024a512 512 0 1 0 0-1024 512 512 0 1 0 0 1024z m-80-352h48v-128h-48c-26.6 0-48-21.4-48-48s21.4-48 48-48h96c26.6 0 48 21.4 48 48v176h16c26.6 0 48 21.4 48 48s-21.4 48-48 48h-160c-26.6 0-48-21.4-48-48s21.4-48 48-48z m80-416a64 64 0 1 1 0 128 64 64 0 1 1 0-128z" p-id="3259" fill="#ffffff"></path></svg>